<svg xmlns="http://www.w3.org/2000/svg" viewBox="0 0 1200 630" width="1200" height="630">
  <rect width="1200" height="630" fill="#131A2A"/>
  <g stroke="#3478F6" stroke-width="1.6" fill="none" opacity="0.28">
    <path d="M-20 180 C 200 130, 380 250, 620 190 C 860 130, 1000 250, 1220 200"/>
    <path d="M-20 280 C 200 230, 380 350, 620 290 C 860 230, 1000 350, 1220 300"/>
    <path d="M-20 380 C 200 330, 380 450, 620 390 C 860 330, 1000 450, 1220 400"/>
    <path d="M-20 480 C 200 430, 380 550, 620 490 C 860 430, 1000 550, 1220 500"/>
  </g>
  <rect x="90" y="238" width="120" height="6" fill="#FF5A24"/>
  <text x="90" y="216" font-family="ui-monospace, Menlo, monospace" font-size="20"
        fill="#A9B1BD" letter-spacing="8">CO-OP DIVISION</text>
  <text x="90" y="352" font-family="Barlow Condensed, Oswald, Arial Narrow, sans-serif"
        font-weight="700" font-size="104" fill="#F5F3EE" letter-spacing="2">CHAT &amp; SOURIS</text>
  <text x="90" y="416" font-family="Barlow Condensed, Oswald, Arial Narrow, sans-serif"
        font-weight="700" font-size="52" fill="#FF5A24" letter-spacing="4">CHAPITRE 55</text>
  <text x="90" y="486" font-family="ui-monospace, Menlo, monospace" font-size="20"
        fill="#A9B1BD" letter-spacing="6">SESSION CO-OP // ACCES RESERVE</text>
</svg>
